<?xml version="1.0" standalone="no"?>
<!DOCTYPE svg PUBLIC "-//W3C//DTD SVG 20010904//EN"
 "http://www.w3.org/TR/2001/REC-SVG-20010904/DTD/svg10.dtd">
<svg version="1.0" xmlns="http://www.w3.org/2000/svg"
 width="150.000000pt" height="150.000000pt" viewBox="0 0 150.000000 150.000000"
 preserveAspectRatio="xMidYMid meet">
<metadata>
Created by potrace 1.14, written by Peter Selinger 2001-2017
</metadata>
<g transform="translate(0.000000,150.000000) scale(0.100000,-0.100000)"
fill="#000000" stroke="none">
<path d="M1219 1326 c-12 -6 -26 -24 -30 -40 -16 -60 69 -96 105 -44 35 49
-21 111 -75 84z"/>
<path d="M1140 1304 c0 -17 22 -14 28 4 2 7 -3 12 -12 12 -9 0 -16 -7 -16 -16z"/>
<path d="M613 1285 c-108 -29 -177 -68 -254 -146 -130 -130 -186 -307 -154
-487 5 -26 2 -37 -16 -51 -44 -35 -18 -105 39 -103 23 0 32 -6 48 -36 10 -20
49 -67 86 -104 231 -230 607 -211 814 40 183 222 167 538 -36 742 -141 142
-337 196 -527 145z"/>
<path d="M1281 1152 c-8 -15 -7 -23 4 -32 21 -18 47 -4 43 22 -4 29 -34 35
-47 10z"/>
<path d="M183 1089 c-16 -6 -21 -13 -16 -26 14 -39 53 -37 53 2 0 29 -9 35
-37 24z"/>
<path d="M1192 378 c-13 -13 2 -48 21 -48 23 0 37 22 26 42 -11 21 -30 23 -47
6z"/>
<path d="M363 223 c-7 -2 -13 -16 -13 -29 0 -19 5 -24 24 -24 30 0 40 24 20
45 -9 8 -16 15 -17 14 -1 0 -8 -3 -14 -6z"/>
</g>
</svg>
